<svg xmlns="http://www.w3.org/2000/svg" width="1300" height="806" viewBox="0 0 1300 806">
<g>
<path d="M 0.00 0.00 L 1300.00 0.00 L 1300.00 806.00 L 0.00 806.00 ZM 1009.73 468.39 C1010.13,468.79 1039.26,468.93 1074.48,468.70 C1140.54,468.26 1140.76,468.25 1155.93,464.05 C1162.86,462.14 1172.42,457.29 1178.94,452.38 C1192.51,442.18 1200.02,425.48 1199.98,405.59 C1199.96,393.39 1197.94,384.62 1192.96,375.05 C1187.73,364.99 1180.64,357.59 1170.73,351.85 L 1162.97 347.36 L 1168.64 343.45 C1178.49,336.66 1186.34,324.39 1189.08,311.50 C1190.88,303.03 1190.62,288.66 1188.55,281.52 C1186.40,274.14 1181.74,264.81 1177.63,259.68 C1168.41,248.15 1148.60,239.50 1125.79,237.05 C1120.27,236.45 1092.97,236.00 1062.54,236.00 L 1009.00 236.00 L 1009.00 351.83 C1009.00,415.54 1009.33,467.99 1009.73,468.39 ZM 751.03 352.50 L 751.02 469.00 L 791.00 469.00 L 791.00 393.79 C791.00,329.63 791.20,318.79 792.39,320.04 C793.71,321.43 800.07,333.76 835.49,403.50 C844.15,420.55 852.12,435.96 853.20,437.75 L 855.16 441.00 L 876.84 441.00 L 901.65 392.25 C938.32,320.20 939.46,318.01 940.00,318.01 C940.28,318.00 940.34,351.97 940.15,393.50 L 939.79 469.00 L 980.00 469.00 L 980.00 235.96 L 942.82 236.50 L 933.34 255.00 C928.13,265.17 914.94,290.83 904.04,312.00 C893.14,333.17 880.30,358.38 875.50,368.00 C870.70,377.62 866.57,385.72 866.31,385.99 C865.55,386.81 864.48,384.77 809.00,276.15 L 788.50 236.02 L 769.78 236.01 L 751.05 236.00 ZM 564.51 468.01 C564.92,468.68 572.27,468.95 585.24,468.77 L 605.33 468.50 L 619.71 432.00 C627.62,411.92 635.38,392.12 636.96,388.00 C638.55,383.88 644.18,369.48 649.49,356.00 C664.68,317.43 675.00,290.43 675.00,289.25 C675.00,287.75 662.90,286.81 648.54,287.19 L 636.58 287.50 L 619.74 331.00 C590.23,407.21 585.80,418.20 584.95,417.34 C584.22,416.60 571.81,385.68 563.96,365.00 C562.39,360.88 557.90,349.17 553.99,339.00 C550.07,328.83 544.09,312.96 540.69,303.75 L 534.50 286.99 L 514.00 287.25 C494.12,287.49 493.51,287.56 493.84,289.50 C494.20,291.59 498.72,303.28 519.99,357.00 C552.96,440.29 563.29,466.05 564.51,468.01 ZM 170.17 394.69 C171.37,395.96 172.54,397.00 172.76,397.00 C172.99,397.00 179.97,390.48 188.27,382.51 L 203.35 368.01 L 277.34 367.76 L 351.33 367.50 L 352.71 360.50 C356.59,340.87 369.67,325.01 386.23,319.85 C393.76,317.51 411.32,317.31 418.64,319.49 C433.86,324.00 447.47,340.10 449.74,356.25 L 450.26 360.00 L 413.30 360.00 L 407.65 365.93 C400.06,373.88 400.04,376.17 407.45,383.58 L 412.89 389.02 L 450.70 388.76 L 488.50 388.50 L 488.78 377.04 C489.73,338.86 472.35,307.06 442.53,292.44 C430.05,286.33 421.74,284.68 403.00,284.60 C384.13,284.52 377.89,285.72 364.33,292.01 C353.91,296.84 348.20,300.76 339.64,308.94 C326.95,321.07 319.50,334.24 315.42,351.75 C313.82,358.63 313.17,360.01 311.50,360.06 C298.72,360.48 204.31,359.71 203.35,359.18 C202.65,358.78 195.57,352.28 187.62,344.73 C179.67,337.18 172.75,331.00 172.26,331.00 C171.76,331.00 170.28,332.14 168.98,333.53 L 166.60 336.05 L 173.41 342.91 C179.56,349.11 180.15,350.05 179.55,352.76 C179.19,354.40 177.88,356.70 176.64,357.87 C174.40,359.97 173.98,359.99 112.94,360.24 L 51.50 360.50 L 51.19 364.25 L 50.88 368.00 L 113.87 368.00 C169.80,368.00 177.03,368.18 178.43,369.57 C179.29,370.44 180.03,371.45 180.07,371.82 C180.11,372.19 180.29,373.68 180.49,375.11 C180.77,377.21 179.58,378.96 174.42,384.08 C170.89,387.58 168.00,390.88 168.00,391.41 C168.00,391.94 168.98,393.41 170.17,394.69 ZM 81.69 344.35 C82.07,344.73 91.18,344.92 101.94,344.77 L 121.50 344.50 L 121.76 308.68 L 122.03 272.86 L 156.26 273.22 L 190.50 273.57 L 199.00 276.37 C215.12,281.68 226.78,289.64 235.65,301.39 C243.29,311.49 247.26,321.61 249.43,336.50 L 250.60 344.50 L 271.55 344.50 C291.91,344.50 292.49,344.44 292.27,342.50 C291.04,331.95 290.00,325.72 288.75,321.50 C287.93,318.75 286.53,313.80 285.63,310.50 C283.56,302.88 275.89,286.89 272.84,283.84 C269.55,280.55 264.00,273.16 264.00,272.07 C264.00,270.38 248.58,257.85 241.01,253.40 C232.38,248.32 221.34,243.54 212.00,240.85 C197.70,236.73 185.61,236.00 131.95,236.00 L 81.00 236.00 L 81.00 289.83 C81.00,319.44 81.31,343.98 81.69,344.35 ZM 81.75 468.41 C82.16,468.82 107.47,468.96 138.00,468.71 C199.11,468.22 198.38,468.29 218.69,461.53 C247.85,451.82 270.60,431.03 282.65,403.05 C287.45,391.88 288.83,386.14 286.97,384.94 C286.16,384.42 276.68,384.03 265.84,384.07 L 246.17 384.15 L 243.96 389.59 C237.33,405.94 221.66,420.61 204.00,427.04 C191.93,431.43 184.19,432.22 152.30,432.37 C127.18,432.48 122.79,432.28 121.98,431.00 C121.45,430.17 121.02,419.34 121.02,406.75 L 121.00 384.00 L 81.00 384.00 L 81.00 425.83 C81.00,448.84 81.34,468.00 81.75,468.41 ZM 1132.78 431.63 C1127.70,432.95 1119.16,433.35 1088.25,433.73 L 1050.00 434.20 L 1050.00 367.00 L 1084.43 367.00 C1103.55,367.00 1122.30,367.48 1126.59,368.08 C1141.61,370.17 1150.62,375.50 1155.76,385.36 C1158.13,389.92 1158.44,391.64 1158.47,400.50 C1158.50,409.44 1158.22,411.03 1155.84,415.50 C1151.30,424.05 1144.96,428.48 1132.78,431.63 ZM 395.50 471.33 C407.70,472.85 428.65,471.13 435.64,468.04 C437.92,467.03 441.30,465.89 443.15,465.50 C448.90,464.28 464.00,454.97 471.15,448.22 C474.92,444.66 478.00,441.23 478.00,440.59 C478.00,439.95 475.86,437.12 473.25,434.31 C466.70,427.25 463.00,422.91 461.22,420.21 C458.13,415.50 456.57,415.61 450.49,420.92 C443.51,427.03 431.29,433.45 424.00,434.84 C414.19,436.71 406.36,437.19 402.39,436.15 C400.25,435.59 396.00,434.64 392.94,434.04 C384.40,432.35 375.98,427.85 368.79,421.12 C359.71,412.63 354.97,403.19 351.54,386.75 L 350.96 384.00 L 311.96 384.00 L 312.43 386.25 C312.68,387.49 313.19,391.20 313.55,394.50 C313.91,397.80 314.50,400.73 314.87,401.00 C315.56,401.52 319.80,414.39 320.53,418.17 C320.76,419.37 321.53,420.72 322.23,421.16 C322.93,421.61 323.12,421.98 322.65,421.98 C320.36,422.03 330.60,436.59 339.41,445.84 C351.84,458.87 373.09,468.53 395.50,471.33 ZM 1125.29 330.51 C1120.89,331.66 1111.34,332.12 1085.29,332.46 C1066.47,332.71 1050.84,332.55 1050.56,332.10 C1050.28,331.65 1050.02,317.83 1049.97,301.39 L 1049.89 271.50 L 1083.69 271.51 C1119.88,271.52 1124.12,271.95 1133.40,276.59 C1144.30,282.04 1148.99,289.69 1148.97,302.00 C1148.94,317.16 1141.32,326.34 1125.29,330.51 ZM 384.31 393.79 C394.38,403.80 403.08,412.00 403.64,412.00 C404.19,412.00 405.71,410.87 407.00,409.50 L 409.35 406.99 L 376.55 373.97 L 409.47 341.01 L 406.81 338.35 L 404.15 335.70 L 385.08 354.06 C374.58,364.16 366.00,373.13 366.00,373.99 C366.00,374.86 374.24,383.77 384.31,393.79 ZM 713.67 719.33 C716.02,721.69 719.49,719.08 735.79,702.69 C745.25,693.16 753.00,684.75 753.00,684.00 C753.00,683.25 745.46,675.05 736.25,665.77 C721.23,650.65 719.19,648.94 716.50,649.21 C714.14,649.44 713.44,650.03 713.22,652.00 C712.99,654.05 715.58,657.13 727.47,668.99 C735.46,676.95 742.00,683.94 742.00,684.50 C742.00,685.06 735.47,692.04 727.50,700.00 C713.87,713.60 711.40,717.06 713.67,719.33 ZM 683.42 469.64 C684.12,471.47 710.99,471.61 712.80,469.80 C713.48,469.12 714.00,465.87 714.00,462.32 C714.00,462.13 714.00,461.95 714.00,461.77 C714.00,459.24 714.01,457.64 713.23,456.63 C711.87,454.87 708.11,454.95 697.78,455.18 L 696.50 455.21 L 683.50 455.50 L 683.20 461.89 C683.03,465.41 683.13,468.90 683.42,469.64 ZM 683.69 421.36 C684.07,421.74 690.94,421.93 698.94,421.78 L 713.50 421.50 L 713.50 406.50 L 698.25 406.22 L 683.00 405.95 L 683.00 413.31 C683.00,417.35 683.31,420.98 683.69,421.36 ZM 666.44 452.70 C667.07,454.35 679.57,454.51 680.57,452.88 C680.95,452.27 681.47,445.27 681.72,437.34 L 682.17 422.91 L 674.34 423.21 L 666.50 423.50 L 666.22 437.45 C666.07,445.13 666.17,451.99 666.44,452.70 ZM 715.46 453.75 C715.83,454.73 717.79,455.01 722.74,454.80 L 729.50 454.50 L 729.50 423.50 L 715.50 423.50 L 715.22 437.95 C715.07,445.90 715.17,453.01 715.46,453.75 ZM 521.63 708.93 C523.08,710.07 524.90,711.00 525.68,711.00 C527.32,711.00 532.00,706.59 532.00,705.05 C532.00,704.34 546.85,703.95 578.25,703.83 L 624.50 703.66 L 532.50 701.85 L 530.67 699.43 C528.48,696.54 523.59,696.15 520.83,698.65 C518.03,701.19 518.44,706.41 521.63,708.93 ZM 580.22 674.44 C583.82,676.97 587.64,676.41 590.16,673.00 C592.26,670.15 592.76,669.99 599.94,669.87 L 607.50 669.73 L 599.57 668.77 C593.04,667.98 591.31,667.39 589.75,665.41 C587.51,662.57 582.03,662.11 579.57,664.57 C577.18,666.96 577.55,672.57 580.22,674.44 ZM 558.89 650.64 C560.26,651.32 562.17,651.50 563.34,651.07 C565.73,650.19 570.79,644.00 569.13,644.00 C568.51,644.00 568.00,643.39 568.00,642.65 C568.00,641.92 567.14,640.53 566.09,639.58 C563.33,637.09 558.17,637.86 555.74,641.14 C554.00,643.48 553.93,644.08 555.14,646.61 C555.89,648.17 557.58,649.98 558.89,650.64 ZM 582.27 729.47 C585.96,731.02 587.87,730.32 590.76,726.35 C592.59,723.84 592.62,723.49 591.11,720.81 C588.42,716.02 581.63,715.60 579.13,720.07 C577.02,723.84 578.35,727.82 582.27,729.47 ZM 618.87 723.25 L 605.50 723.56 L 620.00 723.80 L 634.50 724.04 L 646.59 711.54 L 658.68 699.04 L 681.59 698.75 L 704.50 698.46 L 681.48 698.23 L 658.46 698.00 L 632.24 722.94 Z" fill="rgb(9,13,27)"/>
<path d="M 81.69 344.35 C81.31,343.98 81.00,319.44 81.00,289.83 L 81.00 236.00 L 131.95 236.00 C185.61,236.00 197.70,236.73 212.00,240.85 C221.34,243.54 232.38,248.32 241.01,253.40 C248.58,257.85 264.00,270.38 264.00,272.07 C264.00,273.16 269.55,280.55 272.84,283.84 C275.89,286.89 283.56,302.88 285.63,310.50 C286.53,313.80 287.93,318.75 288.75,321.50 C290.00,325.72 291.04,331.95 292.27,342.50 C292.49,344.44 291.91,344.50 271.55,344.50 L 250.60 344.50 L 249.43 336.50 C247.26,321.61 243.29,311.49 235.65,301.39 C226.78,289.64 215.12,281.68 199.00,276.37 L 190.50 273.57 L 156.26 273.22 L 122.03 272.86 L 121.76 308.68 L 121.50 344.50 L 101.94 344.77 C91.18,344.92 82.07,344.73 81.69,344.35 ZM 81.75 468.41 C81.34,468.00 81.00,448.84 81.00,425.83 L 81.00 384.00 L 121.00 384.00 L 121.02 406.75 C121.02,419.34 121.45,430.17 121.98,431.00 C122.79,432.28 127.18,432.48 152.30,432.37 C184.19,432.22 191.93,431.43 204.00,427.04 C221.66,420.61 237.33,405.94 243.96,389.59 L 246.17 384.15 L 265.84 384.07 C276.68,384.03 286.16,384.42 286.97,384.94 C288.83,386.14 287.45,391.88 282.65,403.05 C270.60,431.03 247.85,451.82 218.69,461.53 C198.38,468.29 199.11,468.22 138.00,468.71 C107.47,468.96 82.16,468.82 81.75,468.41 ZM 395.50 471.33 C377.79,469.12 360.80,462.62 348.32,453.55 C348.51,453.67 348.63,453.71 348.67,453.67 C348.96,453.38 347.12,451.07 344.60,448.54 C342.07,446.02 340.00,443.60 340.00,443.18 C340.00,442.29 333.77,435.59 329.59,432.00 L 326.69 429.50 L 328.37 432.55 C324.12,426.76 321.35,422.01 322.65,421.98 C323.12,421.98 322.93,421.61 322.23,421.16 C321.53,420.72 320.76,419.37 320.53,418.17 C319.80,414.39 315.56,401.52 314.87,401.00 C314.50,400.73 313.91,397.80 313.55,394.50 C313.19,391.20 312.68,387.49 312.43,386.25 L 311.96 384.00 L 331.37 384.00 C313.92,384.00 311.85,384.17 312.39,385.58 C312.73,386.45 313.01,387.91 313.01,388.83 C313.02,389.96 313.44,389.69 314.29,388.00 C315.54,385.54 315.77,385.50 329.19,385.22 C343.08,384.94 343.90,385.17 341.72,388.66 C341.32,389.30 341.29,390.58 341.64,391.51 C342.01,392.46 341.72,393.55 341.00,394.00 C338.41,395.60 340.81,397.70 345.93,398.31 C348.75,398.64 351.51,399.20 352.08,399.55 C353.10,400.18 358.00,410.52 358.00,412.06 C358.00,412.50 357.15,413.14 356.11,413.47 C353.32,414.35 352.81,417.84 354.62,423.69 C356.76,430.57 359.61,433.26 363.56,432.13 C365.19,431.66 367.98,431.49 369.77,431.75 C371.56,432.02 373.58,431.78 374.26,431.23 C375.00,430.63 376.40,430.57 377.75,431.08 C380.75,432.22 380.63,433.20 377.59,432.43 C375.69,431.96 375.04,432.30 374.47,434.10 C373.92,435.82 374.32,436.84 376.09,438.28 C377.38,439.32 378.45,441.15 378.47,442.34 C378.49,443.80 379.55,444.96 381.71,445.91 C384.51,447.15 384.91,447.80 384.82,450.91 C384.69,455.46 383.40,458.00 381.21,458.02 C379.77,458.03 379.73,458.18 380.97,458.96 C382.23,459.76 382.18,459.99 380.68,460.57 C379.09,461.18 379.06,461.41 380.45,462.94 C383.18,465.96 364.77,461.99 357.61,458.02 C354.37,456.22 352.07,455.31 352.50,456.00 C353.75,458.02 370.82,465.69 379.08,467.95 C383.26,469.10 389.33,470.42 392.58,470.89 C398.50,471.76 405.74,472.00 412.72,471.73 C406.55,472.02 400.34,471.93 395.50,471.33 ZM 179.53 379.97 L 168.01 391.52 C168.00,391.48 168.00,391.44 168.00,391.41 C168.00,390.88 170.89,387.58 174.42,384.08 C179.58,378.96 180.77,377.21 180.49,375.11 C180.29,373.68 180.11,372.19 180.07,371.82 C180.03,371.45 179.29,370.44 178.43,369.57 C177.03,368.18 169.80,368.00 113.87,368.00 L 50.88 368.00 L 51.05 365.89 C51.20,367.47 51.68,368.00 52.75,368.00 C54.08,368.00 54.50,367.17 54.50,364.50 C54.50,361.83 54.08,361.00 52.75,361.00 C52.10,361.00 51.67,361.20 51.40,361.70 L 51.50 360.50 L 112.94 360.24 C173.98,359.99 174.40,359.97 176.64,357.87 C177.88,356.70 179.19,354.40 179.55,352.76 C180.15,350.05 179.56,349.11 173.41,342.91 L 166.60 336.05 L 168.98 333.53 C169.11,333.38 169.25,333.23 169.39,333.09 C169.13,333.44 168.86,333.85 168.58,334.31 C167.70,335.71 169.52,337.99 179.49,347.99 L 191.47 360.00 L 164.98 360.02 C149.61,360.02 137.87,360.44 137.00,361.00 C135.94,361.68 137.35,361.97 141.75,361.98 L 142.35 361.99 C147.35,362.00 148.67,362.00 149.83,362.44 C150.28,362.61 150.71,362.85 151.34,363.18 C152.35,363.72 152.87,364.46 152.51,364.83 C152.15,365.20 145.25,365.99 137.18,366.60 C122.75,367.68 123.08,367.70 156.98,367.85 L 191.47 368.00 ZM 443.86 388.81 L 412.89 389.02 L 407.45 383.58 C400.04,376.17 400.06,373.88 407.65,365.93 L 413.30 360.00 L 450.14 360.00 L 450.26 361.00 L 431.88 361.08 C416.09,361.14 414.05,361.32 417.43,362.34 L 421.36 363.52 L 423.04 372.43 C423.97,377.33 424.52,382.11 424.28,383.05 C423.80,384.86 420.00,387.00 417.25,387.00 C416.14,387.00 415.93,387.33 416.61,388.01 C417.18,388.58 426.70,388.85 443.86,388.81 ZM 330.68 356.37 C327.23,358.95 316.54,360.68 315.41,358.85 C315.07,358.30 315.56,355.83 316.50,353.37 C318.08,349.23 318.42,348.93 321.02,349.50 C323.11,349.96 324.11,349.66 324.92,348.31 C325.95,346.58 326.05,346.58 327.07,348.28 C327.88,349.65 328.90,349.92 331.38,349.46 C333.66,349.03 335.01,349.30 335.90,350.38 C337.22,351.97 336.64,354.00 334.87,354.00 C334.32,354.00 332.43,355.07 330.68,356.37 ZM 329.46 342.00 C328.74,342.00 327.94,342.79 327.69,343.75 C327.32,345.17 327.21,345.11 327.12,343.42 C327.05,342.27 325.84,340.72 324.42,339.96 C322.24,338.79 321.93,338.09 322.44,335.54 C323.11,332.14 328.01,323.72 329.40,323.59 C329.89,323.54 331.08,325.90 332.04,328.84 C332.99,331.77 334.28,334.68 334.89,335.29 C336.40,336.80 336.30,338.29 334.75,337.41 C333.77,336.86 333.76,336.99 334.71,338.02 C335.68,339.06 335.41,339.60 333.35,340.66 C331.93,341.40 330.18,342.00 329.46,342.00 ZM 344.62 344.44 C345.46,346.63 343.76,348.57 341.32,348.21 C338.72,347.82 336.57,345.50 337.47,344.04 C338.44,342.48 343.98,342.78 344.62,344.44 ZM 316.39 347.91 C319.12,337.89 323.08,329.31 328.67,321.48 C326.68,324.39 324.93,327.62 322.68,332.25 C320.14,337.45 317.83,343.25 316.39,347.91 ZM 339.32 445.30 C342.63,448.64 345.65,451.46 347.32,452.82 C344.40,450.62 341.75,448.29 339.41,445.84 C337.37,443.69 335.25,441.27 333.23,438.80 C335.04,440.85 337.18,443.14 339.32,445.30 ZM 170.77 331.86 C171.43,331.33 171.99,331.00 172.26,331.00 C172.52,331.00 174.54,332.70 177.56,335.41 C173.85,332.21 172.08,331.29 170.77,331.86 ZM 332.97 315.98 C335.01,313.58 337.23,311.24 339.64,308.94 C348.20,300.76 353.91,296.84 364.33,292.01 C372.41,288.26 377.89,286.32 384.99,285.38 C377.87,286.33 372.36,288.29 364.16,292.09 C353.00,297.26 344.89,303.21 335.75,312.93 C334.73,314.01 333.81,315.01 332.97,315.98 ZM 366.50 418.86 C360.48,412.61 356.75,405.99 353.85,396.07 C356.75,405.83 360.61,412.71 366.50,418.86 ZM 444.16 340.73 C438.34,330.76 428.85,322.52 418.65,319.49 C428.89,322.53 438.37,330.78 444.16,340.73 ZM 170.17 394.69 C170.15,394.66 170.12,394.63 170.10,394.60 C171.36,395.93 172.54,397.00 172.76,397.00 C172.54,397.00 171.37,395.96 170.17,394.69 Z" fill="rgb(34,127,240)"/>
<path d="M 751.03 352.50 L 751.04 284.39 C751.12,296.03 751.28,304.05 751.47,303.86 C751.74,303.60 751.98,289.41 752.03,272.34 C752.10,245.63 752.33,240.97 753.70,239.02 C755.25,236.81 755.64,236.76 767.40,237.29 C782.83,237.99 786.64,239.07 787.50,242.98 C787.85,244.59 788.98,246.98 790.01,248.28 C791.04,249.59 792.20,251.97 792.59,253.58 C792.98,255.19 794.14,257.57 795.15,258.88 C796.17,260.20 797.00,261.83 797.00,262.51 C797.00,263.20 797.68,264.32 798.51,265.01 C799.34,265.70 800.85,268.12 801.87,270.38 C802.88,272.65 804.67,275.36 805.85,276.40 C807.03,277.45 808.00,278.91 808.00,279.65 C808.00,280.39 810.25,285.05 813.00,290.00 C815.75,294.95 818.00,299.24 818.00,299.52 C818.00,299.80 819.48,302.39 821.28,305.27 C826.53,313.63 826.90,314.27 829.19,319.00 C836.88,334.88 838.70,338.34 841.26,341.97 C842.22,343.33 843.00,345.13 843.01,345.97 C843.02,346.81 845.02,350.88 847.46,355.00 C849.90,359.12 852.83,364.19 853.97,366.25 C855.11,368.31 856.29,370.00 856.60,370.00 C856.80,370.00 854.39,364.99 850.60,357.47 C865.22,385.87 865.83,386.51 866.31,385.99 C866.57,385.72 870.70,377.62 875.50,368.00 C876.54,365.91 877.96,363.08 879.66,359.72 C871.54,375.80 867.06,385.00 867.38,385.00 C867.82,385.00 875.00,373.11 875.00,372.39 C875.00,372.13 876.73,369.57 878.85,366.71 C880.96,363.84 883.39,360.15 884.25,358.50 C885.11,356.85 886.75,354.42 887.90,353.10 C889.06,351.78 890.00,349.90 890.00,348.93 C890.00,346.13 891.10,344.00 892.55,344.00 C893.52,344.00 893.83,345.47 893.69,349.45 C893.51,354.65 893.70,355.09 897.71,358.95 C902.06,363.14 906.35,364.25 908.78,361.82 C911.39,359.21 911.15,362.45 908.03,371.74 C906.23,377.11 903.90,382.71 902.86,384.18 C901.81,385.66 900.12,389.48 899.10,392.68 C898.08,395.88 895.18,402.53 892.66,407.46 C890.15,412.39 888.24,416.57 888.43,416.76 C888.62,416.95 900.18,394.81 914.14,367.56 C917.59,360.81 920.91,354.36 923.94,348.48 C918.57,359.02 911.35,373.19 901.65,392.25 L 876.84 441.00 L 855.16 441.00 L 853.20 437.75 C852.12,435.96 844.15,420.55 835.49,403.50 C800.07,333.76 793.71,321.43 792.39,320.04 C791.72,319.33 791.36,322.49 791.18,336.93 C791.09,325.16 790.94,318.00 790.75,318.00 C790.34,318.00 790.00,349.92 790.00,388.93 C790.00,458.45 789.76,464.29 786.85,466.09 C785.46,466.95 774.00,464.69 771.42,463.05 C770.27,462.32 768.51,460.50 767.49,458.99 C766.48,457.49 763.09,454.13 759.95,451.54 C754.76,447.25 754.13,446.30 753.10,441.16 C752.48,438.05 751.84,432.58 751.68,429.00 C751.52,425.42 751.30,432.96 751.19,445.75 L 751.02 467.07 ZM 564.51 468.01 C563.29,466.05 552.96,440.29 519.99,357.00 C498.72,303.28 494.20,291.59 493.84,289.50 C493.51,287.56 494.12,287.49 514.00,287.25 L 534.50 286.99 L 540.69 303.75 C544.09,312.96 550.07,328.83 553.99,339.00 C557.90,349.17 562.39,360.88 563.96,365.00 C571.81,385.68 584.22,416.60 584.95,417.34 C585.80,418.20 590.23,407.21 619.74,331.00 L 636.58 287.50 L 648.54 287.19 C662.90,286.81 675.00,287.75 675.00,289.25 C675.00,290.43 664.68,317.43 649.49,356.00 C644.18,369.48 638.55,383.88 636.96,388.00 C635.38,392.12 627.62,411.92 619.71,432.00 L 605.33 468.50 L 585.24 468.77 C572.27,468.95 564.92,468.68 564.51,468.01 ZM 330.68 356.37 C332.43,355.07 334.32,354.00 334.87,354.00 C336.64,354.00 337.22,351.97 335.90,350.38 C335.01,349.30 333.66,349.03 331.38,349.46 C328.90,349.92 327.88,349.65 327.07,348.28 C326.05,346.58 325.95,346.58 324.92,348.31 C324.11,349.66 323.11,349.96 321.02,349.50 C319.37,349.14 318.63,349.13 317.91,350.22 C319.15,347.13 320.63,342.56 321.46,339.17 C321.71,338.15 322.00,337.12 322.33,336.11 C321.99,338.21 322.42,338.89 324.42,339.96 C325.84,340.72 327.05,342.27 327.12,343.42 C327.21,345.11 327.32,345.17 327.69,343.75 C327.94,342.79 328.74,342.00 329.46,342.00 C330.18,342.00 331.93,341.40 333.35,340.66 C335.41,339.60 335.68,339.06 334.71,338.02 C333.76,336.99 333.77,336.86 334.75,337.41 C336.30,338.29 336.40,336.80 334.89,335.29 C334.28,334.68 332.99,331.77 332.04,328.84 C331.08,325.90 329.89,323.54 329.40,323.59 C329.21,323.61 328.95,323.78 328.65,324.07 C329.96,322.05 331.24,319.92 331.99,318.50 L 333.85 314.99 C334.44,314.33 335.07,313.65 335.75,312.93 C344.89,303.21 353.00,297.26 364.16,292.09 C372.35,288.29 377.86,286.33 384.98,285.39 L 384.99 285.38 C389.81,284.75 395.37,284.57 403.00,284.60 C421.74,284.68 430.05,286.33 442.53,292.44 C472.35,307.06 489.73,338.86 488.78,377.04 L 488.55 386.65 C488.49,386.70 488.43,386.81 488.34,386.98 C487.48,388.71 434.44,388.32 428.43,386.53 C425.04,385.53 423.47,385.33 421.28,385.89 C422.79,385.10 424.02,384.03 424.28,383.05 C424.52,382.11 423.97,377.33 423.04,372.43 L 421.36 363.52 L 418.53 362.67 C420.47,363.04 421.74,362.81 423.00,362.00 C423.70,361.55 423.43,361.28 422.03,361.17 C424.44,361.12 427.67,361.09 431.88,361.08 L 450.26 361.00 L 450.14 360.00 L 450.26 360.00 L 449.74 356.25 C448.99,350.94 447.02,345.63 444.16,340.73 C438.37,330.78 428.90,322.54 418.66,319.49 L 418.65 319.49 L 418.64 319.49 C411.32,317.31 393.76,317.51 386.23,319.85 C369.67,325.01 356.59,340.87 352.71,360.50 L 351.33 367.50 L 277.34 367.76 L 203.35 368.01 L 203.36 368.00 L 235.93 367.79 C253.84,367.67 263.77,367.46 258.00,367.32 C239.68,366.87 222.00,364.93 222.00,363.38 C222.00,362.62 222.11,361.93 222.25,361.84 C222.39,361.76 231.73,361.39 243.00,361.04 L 263.50 360.39 L 233.66 360.19 L 203.83 360.00 L 197.16 353.79 C194.98,351.76 191.65,348.59 188.29,345.37 C195.96,352.64 202.67,358.79 203.35,359.18 C204.31,359.71 298.72,360.48 311.50,360.06 C312.65,360.02 313.31,359.36 314.14,356.70 C314.07,357.27 314.03,357.79 314.02,358.25 C314.01,359.21 314.44,360.00 314.97,360.00 C315.40,360.00 315.60,359.56 315.50,358.97 C317.02,360.60 327.30,358.89 330.68,356.37 ZM 468.87 449.57 C467.66,451.18 469.22,450.04 472.33,447.03 C473.77,445.65 475.08,444.30 476.08,443.21 C474.84,444.60 473.09,446.39 471.15,448.22 C464.00,454.97 448.90,464.28 443.15,465.50 C441.30,465.89 437.92,467.03 435.64,468.04 C434.12,468.71 431.94,469.32 429.33,469.84 C431.19,469.22 430.60,469.16 426.49,469.09 C423.74,469.04 420.07,469.40 418.35,469.90 C413.77,471.21 389.55,468.48 384.50,466.07 C383.09,465.41 380.38,464.59 377.45,463.90 C379.96,464.17 381.35,463.93 380.45,462.94 C379.06,461.41 379.09,461.18 380.68,460.57 C382.18,459.99 382.23,459.76 380.97,458.96 C379.73,458.18 379.77,458.03 381.21,458.02 C383.40,458.00 384.69,455.46 384.82,450.91 C384.91,447.80 384.51,447.15 381.71,445.91 C379.55,444.96 378.49,443.80 378.47,442.34 C378.45,441.15 377.38,439.32 376.09,438.28 C374.32,436.84 373.92,435.82 374.47,434.10 C375.04,432.30 375.69,431.96 377.59,432.43 C380.63,433.20 380.75,432.22 377.75,431.08 C376.40,430.57 375.00,430.63 374.26,431.23 C373.58,431.78 371.56,432.02 369.77,431.75 C367.98,431.49 365.19,431.66 363.56,432.13 C359.61,433.26 356.76,430.57 354.62,423.69 C352.81,417.84 353.32,414.35 356.11,413.47 C357.15,413.14 358.00,412.50 358.00,412.06 C358.00,411.74 357.79,411.04 357.45,410.13 C359.11,413.83 361.26,417.71 362.49,419.17 C366.93,424.45 374.86,430.00 382.26,433.00 C387.67,435.20 391.02,435.92 395.50,435.86 L 400.88 435.78 C401.45,435.91 401.96,436.04 402.39,436.15 C406.36,437.19 414.19,436.71 424.00,434.84 C431.29,433.45 443.51,427.03 450.49,420.92 C456.57,415.61 458.13,415.50 461.22,420.21 C462.96,422.85 466.53,427.05 472.79,433.80 C472.24,433.31 471.81,433.00 471.58,433.00 C471.07,433.00 471.63,434.04 472.83,435.31 C475.60,438.27 475.71,443.39 473.04,445.26 C471.96,446.02 470.08,447.96 468.87,449.57 ZM 976.74 464.75 L 976.05 468.00 L 940.72 468.00 L 941.45 443.49 C942.19,418.41 942.26,417.38 943.42,410.50 C945.20,399.93 946.51,395.00 947.46,395.32 C948.03,395.51 949.27,397.75 950.22,400.29 C951.78,404.51 951.79,405.06 950.36,406.50 C948.92,407.93 948.97,408.24 950.89,409.91 C952.05,410.91 953.00,412.13 953.00,412.62 C953.00,413.51 956.49,418.02 959.72,421.31 C960.70,422.31 961.99,424.55 962.58,426.30 C963.30,428.40 965.15,430.33 968.08,432.04 C973.80,435.37 975.01,438.10 976.04,449.92 C976.51,455.28 977.01,460.07 977.15,460.58 C977.30,461.09 977.11,462.96 976.74,464.75 ZM 377.33 373.19 L 391.50 358.50 L 384.20 365.50 C380.18,369.35 376.35,373.62 375.69,375.00 C374.34,377.79 370.19,378.91 368.88,376.84 C367.04,373.94 368.25,371.29 374.25,365.03 L 380.36 358.65 C381.87,357.16 383.45,355.62 385.08,354.06 L 404.15 335.70 L 406.81 338.35 L 409.47 341.01 ZM 714.00 461.92 C714.00,462.05 714.00,462.18 714.00,462.32 C714.00,465.87 713.48,469.12 712.80,469.80 C711.68,470.92 700.95,471.30 692.78,470.98 C695.78,470.93 698.00,470.75 698.00,470.53 C698.00,470.27 696.88,467.51 695.50,464.40 C692.12,456.76 692.23,456.19 697.25,455.71 C699.59,455.49 697.45,455.35 692.50,455.40 L 683.50 455.50 L 696.50 455.21 L 697.78 455.18 C708.11,454.95 711.87,454.87 713.23,456.63 C713.99,457.62 714.00,459.18 714.00,461.63 L 714.00 461.77 ZM 715.46 453.75 C715.17,453.01 715.07,445.90 715.22,437.95 L 715.26 435.73 C715.45,436.52 715.81,436.63 716.41,436.39 C718.71,435.51 728.96,440.57 729.21,442.69 C729.27,443.27 729.38,442.36 729.50,440.47 L 729.50 454.50 L 722.74 454.80 C717.79,455.01 715.83,454.73 715.46,453.75 ZM 681.78 435.46 L 675.70 435.32 C670.69,435.21 669.24,434.78 667.78,432.98 C667.01,432.03 666.57,431.54 666.32,432.24 L 666.50 423.50 L 674.34 423.21 L 682.17 422.91 ZM 521.63 708.93 C518.44,706.41 518.03,701.19 520.83,698.65 C523.59,696.15 528.48,696.54 530.67,699.43 L 532.50 701.85 L 533.25 701.87 C532.07,702.03 531.84,702.31 532.20,702.75 C532.95,703.65 541.90,703.92 571.17,703.86 C544.62,704.01 532.00,704.39 532.00,705.05 C532.00,706.59 527.32,711.00 525.68,711.00 C524.90,711.00 523.08,710.07 521.63,708.93 ZM 683.69 421.36 C683.31,420.98 683.00,417.35 683.00,413.31 L 683.00 405.95 L 698.25 406.22 L 713.50 406.50 L 698.00 406.39 C689.47,406.32 683.85,406.48 685.50,406.72 C687.15,406.97 689.12,407.69 689.89,408.32 C691.64,409.77 695.00,417.53 695.00,420.12 C695.00,421.14 695.20,421.63 696.90,421.81 C689.80,421.89 684.04,421.71 683.69,421.36 ZM 580.22 674.44 C577.55,672.57 577.18,666.96 579.57,664.57 C582.03,662.11 587.51,662.57 589.75,665.41 C590.78,666.72 591.88,667.42 594.37,667.97 C591.08,667.52 590.33,667.69 590.70,668.67 C591.08,669.65 593.38,669.96 599.36,669.84 C603.19,669.76 605.28,669.57 604.58,669.38 L 607.50 669.73 L 599.94 669.87 C592.76,669.99 592.26,670.15 590.16,673.00 C587.64,676.41 583.82,676.97 580.22,674.44 ZM 558.89 650.64 C557.58,649.98 555.89,648.17 555.14,646.61 C553.93,644.08 554.00,643.48 555.74,641.14 C558.17,637.86 563.33,637.09 566.09,639.58 C567.14,640.53 568.00,641.92 568.00,642.65 C568.00,643.39 568.51,644.00 569.13,644.00 C570.79,644.00 565.73,650.19 563.34,651.07 C562.17,651.50 560.26,651.32 558.89,650.64 ZM 582.27 729.47 C578.35,727.82 577.02,723.84 579.13,720.07 C581.63,715.60 588.42,716.02 591.11,720.81 C592.62,723.49 592.59,723.84 590.76,726.35 C587.87,730.32 585.96,731.02 582.27,729.47 ZM 337.03 385.14 C350.14,385.04 350.52,386.01 351.30,393.60 C351.61,396.65 352.30,399.67 352.82,400.32 C353.16,400.74 354.05,402.49 355.09,404.77 C353.84,402.18 352.55,399.84 352.08,399.55 C351.51,399.20 348.75,398.64 345.93,398.31 C340.81,397.70 338.41,395.60 341.00,394.00 C341.72,393.55 342.01,392.46 341.64,391.51 C341.29,390.58 341.32,389.30 341.72,388.66 C343.38,386.00 343.30,385.23 337.03,385.14 ZM 1018.17 464.35 C1015.78,466.51 1014.27,466.44 1013.54,464.13 C1012.88,462.03 1014.48,457.00 1015.82,457.00 C1016.97,457.00 1020.00,460.38 1020.00,461.67 C1020.00,462.23 1019.18,463.43 1018.17,464.35 ZM 344.62 344.44 C343.98,342.78 338.44,342.48 337.47,344.04 C336.57,345.50 338.72,347.82 341.32,348.21 C343.76,348.57 345.46,346.63 344.62,344.44 ZM 461.53 388.69 C481.34,388.48 487.82,388.14 488.53,387.34 L 488.50 388.50 ZM 421.95 470.98 C419.01,471.32 415.87,471.57 412.72,471.73 C406.96,471.95 401.02,471.83 395.80,471.29 C402.47,471.73 414.32,471.55 421.95,470.98 ZM 366.50 418.86 C367.23,419.63 368.00,420.38 368.79,421.12 C375.98,427.85 384.40,432.35 392.94,434.04 C394.83,434.41 397.18,434.92 399.20,435.38 L 396.35 434.91 C384.86,432.99 375.14,427.85 366.82,419.31 C362.48,414.86 359.29,410.18 356.73,404.19 C359.20,409.93 362.28,414.49 366.50,418.86 ZM 833.42 323.95 C825.69,308.89 816.26,290.45 808.76,275.76 L 788.50 236.02 L 809.00 276.15 C818.71,295.17 826.76,310.91 833.42,323.95 ZM 370.59 462.61 C366.56,461.85 363.12,460.72 359.74,459.06 C362.80,460.41 366.86,461.69 370.59,462.61 ZM 418.37 386.90 C417.45,387.31 416.82,387.73 416.65,388.04 C415.93,387.33 416.14,387.00 417.25,387.00 C417.61,387.00 417.98,386.96 418.37,386.90 ZM 672.48 454.00 C675.80,453.98 679.47,453.65 680.37,453.09 C679.37,453.82 675.77,454.11 672.48,454.00 ZM 323.17 331.25 C320.81,336.13 318.57,341.51 316.90,346.32 C318.34,341.97 320.42,336.87 322.68,332.25 C322.84,331.91 323.01,331.57 323.17,331.25 ZM 168.53 334.39 C168.30,335.75 169.51,337.59 172.72,341.05 C168.79,336.85 167.99,335.38 168.53,334.39 ZM 728.61 423.50 L 729.50 423.50 L 729.50 424.16 C729.35,423.88 729.07,423.66 728.61,423.50 ZM 666.44 452.70 C666.35,452.47 666.28,451.56 666.23,450.17 C666.30,451.35 666.40,452.27 666.50,452.81 C666.47,452.77 666.45,452.74 666.44,452.70 ZM 791.00 461.84 L 791.00 469.00 L 790.98 469.00 ZM 623.70 703.66 L 616.96 703.51 L 624.50 703.66 ZM 477.99 440.65 C477.95,440.36 477.71,439.87 477.33,439.28 C477.76,439.91 478.00,440.37 478.00,440.59 C478.00,440.61 478.00,440.63 477.99,440.65 ZM 170.77 331.86 C170.84,331.83 170.92,331.80 170.99,331.78 C170.76,331.93 170.55,332.07 170.35,332.21 C170.49,332.09 170.63,331.97 170.77,331.86 ZM 443.86 388.81 L 443.85 388.81 C441.13,388.82 438.61,388.81 436.27,388.81 C438.88,388.81 441.66,388.81 444.57,388.80 ZM 353.61 456.05 C352.81,455.75 352.37,455.69 352.46,455.93 C352.37,455.67 352.80,455.73 353.61,456.05 ZM 680.56 452.91 C680.60,452.82 680.65,452.67 680.70,452.46 C680.66,452.67 680.62,452.81 680.57,452.88 C680.57,452.89 680.56,452.90 680.56,452.91 ZM 315.05 386.77 C314.80,387.05 314.61,387.38 314.40,387.79 C314.61,387.38 314.80,387.05 315.05,386.77 ZM 366.00 374.00 L 366.00 373.99 C366.00,373.99 366.00,373.98 366.00,373.97 C366.00,373.98 366.00,373.99 366.00,374.00 Z" fill="rgb(55,214,238)"/>
<path d="M 978.28 304.25 C978.90,308.51 979.54,312.00 979.70,312.00 C979.87,312.00 980.00,294.89 980.00,273.98 L 980.00 469.00 L 939.79 469.00 L 940.15 393.50 C940.34,351.97 940.28,318.00 940.00,318.01 C939.60,318.01 938.88,319.20 923.94,348.48 C920.91,354.36 917.59,360.81 914.14,367.56 C900.18,394.81 888.62,416.95 888.43,416.76 C888.24,416.57 890.15,412.39 892.66,407.46 C895.18,402.53 898.08,395.88 899.10,392.68 C900.12,389.48 901.81,385.66 902.86,384.18 C903.90,382.71 906.23,377.11 908.03,371.74 C911.15,362.45 911.39,359.21 908.78,361.82 C906.35,364.25 902.06,363.14 897.71,358.95 C893.70,355.09 893.51,354.65 893.69,349.45 C893.83,345.47 893.52,344.00 892.55,344.00 C891.10,344.00 890.00,346.13 890.00,348.93 C890.00,349.90 889.06,351.78 887.90,353.10 C886.75,354.42 885.11,356.85 884.25,358.50 C883.39,360.15 880.96,363.84 878.85,366.71 C876.73,369.57 875.00,372.13 875.00,372.39 C875.00,373.11 867.82,385.00 867.38,385.00 C867.06,385.00 871.54,375.80 879.66,359.72 C885.79,347.62 895.51,328.57 904.04,312.00 C914.94,290.83 928.13,265.17 933.34,255.00 L 933.64 254.42 C932.23,257.46 932.07,258.50 932.98,258.01 C934.03,257.45 935.48,256.17 936.20,255.18 C936.91,254.18 938.98,252.50 940.79,251.44 C943.66,249.77 944.21,249.71 945.02,251.01 C945.53,251.83 945.72,253.25 945.44,254.16 C944.83,256.10 948.41,258.99 951.47,259.03 C954.50,259.07 959.33,264.39 958.55,266.84 C958.20,267.94 958.39,269.12 958.96,269.47 C959.53,269.83 960.00,270.78 960.00,271.60 C960.00,272.41 961.80,274.79 964.00,276.89 C966.20,278.98 968.00,281.43 968.00,282.35 C968.00,283.26 968.70,284.00 969.56,284.00 C970.42,284.00 970.86,284.42 970.54,284.93 C970.23,285.44 970.39,286.12 970.90,286.44 C973.47,288.03 977.23,297.11 978.28,304.25 ZM 1009.73 468.39 C1009.33,467.99 1009.00,415.54 1009.00,351.83 L 1009.00 236.00 L 1009.16 290.75 C1009.25,320.86 1009.51,343.95 1009.74,342.06 C1009.97,340.17 1010.77,337.74 1011.51,336.68 C1012.44,335.36 1012.69,333.17 1012.30,329.87 C1011.85,326.10 1012.04,325.00 1013.11,325.01 C1014.56,325.01 1018.00,330.23 1018.00,332.43 C1018.00,334.49 1022.22,338.64 1026.50,340.78 C1028.70,341.89 1031.36,343.74 1032.41,344.89 C1033.45,346.05 1034.93,347.00 1035.69,347.00 C1037.82,347.00 1042.00,350.07 1042.00,351.63 C1042.00,352.40 1043.46,353.92 1045.25,355.01 C1047.04,356.10 1048.15,356.99 1047.71,357.00 C1046.47,357.00 1049.11,361.36 1051.30,362.91 C1053.22,364.27 1053.22,364.36 1051.45,365.66 C1049.90,366.79 1055.03,367.00 1084.24,367.00 L 1050.00 367.00 L 1050.00 434.20 L 1088.25 433.73 C1104.56,433.53 1114.65,433.32 1121.28,432.98 C1117.59,433.31 1113.52,433.55 1109.00,433.72 C1096.56,434.19 1092.71,434.60 1095.67,435.13 C1097.97,435.53 1102.29,437.02 1105.27,438.43 C1108.25,439.85 1111.07,441.00 1111.53,441.00 C1113.60,441.00 1117.00,445.54 1117.00,448.31 C1117.00,450.37 1118.02,452.22 1120.36,454.43 C1126.58,460.30 1127.59,464.40 1123.25,466.17 C1121.74,466.79 1114.20,467.63 1106.50,468.05 C1102.24,468.28 1099.76,468.43 1099.29,468.52 C1092.24,468.58 1084.05,468.63 1074.48,468.70 C1039.26,468.93 1010.13,468.79 1009.73,468.39 ZM 976.74 464.75 C977.11,462.96 977.30,461.09 977.15,460.58 C977.01,460.07 976.51,455.28 976.04,449.92 C975.01,438.10 973.80,435.37 968.08,432.04 C965.15,430.33 963.30,428.40 962.58,426.30 C961.99,424.55 960.70,422.31 959.72,421.31 C956.49,418.02 953.00,413.51 953.00,412.62 C953.00,412.13 952.05,410.91 950.89,409.91 C948.97,408.24 948.92,407.93 950.36,406.50 C951.79,405.06 951.78,404.51 950.22,400.29 C949.27,397.75 948.03,395.51 947.46,395.32 C946.51,395.00 945.20,399.93 943.42,410.50 C942.26,417.38 942.19,418.41 941.45,443.49 L 940.72 468.00 L 976.05 468.00 ZM 179.53 379.97 L 191.47 368.00 L 156.98 367.85 C123.08,367.70 122.75,367.68 137.18,366.60 C145.25,365.99 152.15,365.20 152.51,364.83 C152.87,364.46 152.35,363.72 151.34,363.18 C150.71,362.85 150.28,362.61 149.83,362.44 C148.67,362.00 147.35,362.00 142.35,361.99 L 141.75 361.98 C137.35,361.97 135.94,361.68 137.00,361.00 C137.87,360.44 149.61,360.02 164.98,360.02 L 191.47 360.00 L 179.49 347.99 C176.59,345.08 174.38,342.82 172.72,341.05 L 172.72 341.05 C169.51,337.59 168.30,335.75 168.53,334.39 C168.54,334.36 168.56,334.34 168.58,334.31 C168.86,333.85 169.13,333.44 169.39,333.09 C169.71,332.78 170.04,332.48 170.35,332.21 C170.55,332.07 170.76,331.93 170.99,331.78 C172.29,331.40 174.06,332.39 177.56,335.41 C180.29,337.86 183.84,341.14 187.62,344.73 C187.84,344.94 188.06,345.16 188.29,345.37 C191.65,348.59 194.98,351.76 197.16,353.79 L 203.83 360.00 L 233.66 360.19 L 263.50 360.39 L 243.00 361.04 C231.73,361.39 222.39,361.76 222.25,361.84 C222.11,361.93 222.00,362.62 222.00,363.38 C222.00,364.93 239.68,366.87 258.00,367.32 C263.77,367.46 253.84,367.67 235.93,367.79 L 203.36 368.00 L 203.35 368.01 L 188.27 382.51 C179.97,390.48 172.99,397.00 172.76,397.00 C172.54,397.00 171.36,395.93 170.10,394.60 C169.01,393.43 168.12,392.11 168.01,391.52 ZM 791.00 461.84 L 790.98 469.00 L 751.02 469.00 L 751.02 467.07 L 751.19 445.75 C751.30,432.96 751.52,425.42 751.68,429.00 C751.84,432.58 752.48,438.05 753.10,441.16 C754.13,446.30 754.76,447.25 759.95,451.54 C763.09,454.13 766.48,457.49 767.49,458.99 C768.51,460.50 770.27,462.32 771.42,463.05 C774.00,464.69 785.46,466.95 786.85,466.09 C789.76,464.29 790.00,458.45 790.00,388.93 C790.00,349.92 790.34,318.00 790.75,318.00 C790.94,318.00 791.09,325.16 791.18,336.93 C791.04,348.06 791.00,365.88 791.00,393.79 ZM 833.42 323.95 C840.64,338.06 846.24,349.00 850.60,357.47 C854.39,364.99 856.80,370.00 856.60,370.00 C856.29,370.00 855.11,368.31 853.97,366.25 C852.83,364.19 849.90,359.12 847.46,355.00 C845.02,350.88 843.02,346.81 843.01,345.97 C843.00,345.13 842.22,343.33 841.26,341.97 C838.70,338.34 836.88,334.88 829.19,319.00 C826.90,314.27 826.53,313.63 821.28,305.27 C819.48,302.39 818.00,299.80 818.00,299.52 C818.00,299.24 815.75,294.95 813.00,290.00 C810.25,285.05 808.00,280.39 808.00,279.65 C808.00,278.91 807.03,277.45 805.85,276.40 C804.67,275.36 802.88,272.65 801.87,270.38 C800.85,268.12 799.34,265.70 798.51,265.01 C797.68,264.32 797.00,263.20 797.00,262.51 C797.00,261.83 796.17,260.20 795.15,258.88 C794.14,257.57 792.98,255.19 792.59,253.58 C792.20,251.97 791.04,249.59 790.01,248.28 C788.98,246.98 787.85,244.59 787.50,242.98 C786.64,239.07 782.83,237.99 767.40,237.29 C755.64,236.76 755.25,236.81 753.70,239.02 C752.33,240.97 752.10,245.63 752.03,272.34 C751.98,289.41 751.74,303.60 751.47,303.86 C751.28,304.05 751.12,296.03 751.04,284.39 L 751.05 236.00 L 769.78 236.01 L 788.50 236.02 L 808.76 275.76 C816.26,290.45 825.69,308.89 833.42,323.95 ZM 735.74 665.26 C731.53,661.18 731.33,661.69 730.79,663.71 C730.38,665.24 729.38,666.98 728.57,667.57 C727.36,668.46 728.42,669.96 734.55,676.05 C738.65,680.12 742.00,683.92 742.00,684.50 C742.00,685.08 738.63,688.90 734.51,692.99 C729.58,697.88 727.36,700.76 728.01,701.41 C728.56,701.96 729.00,704.00 729.01,705.95 L 729.02 709.42 C718.43,719.77 715.65,721.32 713.67,719.33 C711.40,717.06 713.87,713.60 727.50,700.00 C735.47,692.04 742.00,685.06 742.00,684.50 C742.00,683.94 735.46,676.95 727.47,668.99 C715.58,657.13 712.99,654.05 713.22,652.00 C713.44,650.03 714.14,649.44 716.50,649.21 C719.16,648.95 721.18,650.61 735.74,665.26 ZM 337.03 385.14 C335.06,385.12 332.50,385.16 329.19,385.22 C318.52,385.44 316.19,385.51 315.05,386.77 C314.80,387.05 314.61,387.38 314.40,387.79 C314.36,387.86 314.33,387.93 314.29,388.00 C313.44,389.69 313.02,389.96 313.01,388.83 C313.01,387.91 312.73,386.45 312.39,385.58 C311.85,384.17 313.92,384.00 331.37,384.00 L 350.96 384.00 L 351.54 386.75 C352.24,390.14 353.01,393.22 353.85,396.07 C354.72,399.05 355.67,401.73 356.73,404.19 L 356.73 404.20 C359.29,410.18 362.48,414.86 366.82,419.31 C375.14,427.85 384.86,432.99 396.35,434.91 L 399.20 435.38 C399.80,435.52 400.36,435.65 400.88,435.78 L 395.50 435.86 C391.02,435.92 387.67,435.20 382.26,433.00 C374.86,430.00 366.93,424.45 362.49,419.17 C361.26,417.71 359.11,413.83 357.45,410.13 C356.90,408.67 356.00,406.66 355.09,404.77 C354.05,402.49 353.16,400.74 352.82,400.32 C352.30,399.67 351.61,396.65 351.30,393.60 C350.52,386.01 350.14,385.04 337.03,385.14 ZM 384.31 393.79 C374.26,383.79 366.04,374.90 366.00,374.00 C366.00,373.99 366.00,373.98 366.00,373.97 C366.13,373.12 372.22,366.65 380.36,358.65 L 374.25 365.03 C368.25,371.29 367.04,373.94 368.88,376.84 C370.19,378.91 374.34,377.79 375.69,375.00 C376.35,373.62 380.18,369.35 384.20,365.50 L 391.50 358.50 L 384.03 366.24 L 377.33 373.19 L 377.33 373.19 L 376.55 373.97 L 409.35 406.99 L 409.33 407.02 L 398.48 396.26 C392.52,390.34 388.45,386.50 389.44,387.71 C390.43,388.93 390.98,390.62 390.65,391.46 C389.87,393.51 385.18,393.43 382.58,391.32 C381.44,390.39 385.49,394.67 391.59,400.82 C393.14,402.38 394.64,403.87 396.04,405.22 C392.75,402.09 388.66,398.11 384.31,393.79 ZM 726.50 427.72 C728.21,428.27 729.06,428.37 729.50,427.96 L 729.50 440.47 C729.38,442.36 729.27,443.27 729.21,442.69 C728.96,440.57 718.71,435.51 716.41,436.39 C715.81,436.63 715.45,436.52 715.26,435.73 L 715.50 423.50 L 717.62 423.50 C717.47,423.57 717.58,423.65 718.00,423.73 C719.38,423.98 721.17,424.76 722.00,425.46 C722.83,426.16 724.85,427.18 726.50,427.72 ZM 681.78 435.46 L 681.72 437.34 C681.63,440.19 681.50,442.93 681.36,445.29 L 674.02 445.39 L 666.15 445.50 C666.14,443.12 666.16,440.34 666.22,437.45 L 666.32 432.24 C666.57,431.54 667.01,432.03 667.78,432.98 C669.24,434.78 670.69,435.21 675.70,435.32 ZM 703.50 414.78 C705.39,419.37 706.11,421.07 707.27,421.62 L 698.94 421.78 C698.25,421.79 697.57,421.80 696.90,421.81 C695.20,421.63 695.00,421.14 695.00,420.12 C695.00,417.53 691.64,409.77 689.89,408.32 C689.12,407.69 687.15,406.97 685.50,406.72 C683.85,406.48 689.47,406.32 698.00,406.39 L 700.61 406.41 C700.27,406.49 700.10,406.59 700.15,406.71 C700.34,407.15 701.85,410.78 703.50,414.78 ZM 692.78 470.98 C690.39,470.89 688.21,470.74 686.56,470.54 C686.83,470.28 687.00,469.92 687.00,469.45 C687.00,468.60 686.21,466.46 685.25,464.70 L 683.50 461.50 L 683.18 464.85 C683.15,465.13 683.13,465.42 683.12,465.71 C683.11,464.54 683.14,463.22 683.20,461.89 L 683.50 455.50 L 692.50 455.40 C697.45,455.35 699.59,455.49 697.25,455.71 C692.23,456.19 692.12,456.76 695.50,464.40 C696.88,467.51 698.00,470.27 698.00,470.53 C698.00,470.75 695.78,470.93 692.78,470.98 ZM 421.95 470.98 C414.32,471.55 402.47,471.73 395.80,471.29 C394.69,471.18 393.62,471.04 392.58,470.89 C389.33,470.42 383.26,469.10 379.08,467.95 C370.82,465.69 353.75,458.02 352.50,456.00 C352.48,455.97 352.47,455.95 352.46,455.93 C352.37,455.69 352.81,455.75 353.61,456.05 C354.54,456.41 355.95,457.09 357.61,458.02 C358.24,458.37 358.96,458.72 359.74,459.06 C363.12,460.72 366.56,461.85 370.59,462.61 C373.18,463.24 375.62,463.71 377.45,463.90 C380.38,464.59 383.09,465.41 384.50,466.07 C389.55,468.48 413.77,471.21 418.35,469.90 C420.07,469.40 423.74,469.04 426.49,469.09 C430.60,469.16 431.19,469.22 429.33,469.84 C427.13,470.29 424.62,470.67 421.95,470.98 ZM 623.70 703.66 L 578.25 703.83 C575.79,703.84 573.43,703.85 571.17,703.86 L 571.17 703.86 C541.89,703.92 532.95,703.65 532.20,702.75 C531.84,702.31 532.07,702.03 533.25,701.87 L 616.96 703.51 L 616.96 703.51 ZM 461.53 388.69 L 444.56 388.80 C441.66,388.81 438.88,388.81 436.27,388.81 L 436.27 388.81 C424.16,388.76 417.37,388.50 416.65,388.04 C416.82,387.73 417.45,387.31 418.37,386.90 C419.34,386.73 420.36,386.36 421.28,385.89 C423.47,385.33 425.04,385.53 428.43,386.53 C434.44,388.32 487.48,388.71 488.34,386.98 C488.43,386.81 488.49,386.70 488.55,386.65 L 488.53 387.34 C487.82,388.14 481.34,388.48 461.53,388.69 ZM 316.39 347.91 C316.55,347.39 316.72,346.86 316.90,346.32 C318.57,341.51 320.81,336.13 323.17,331.25 C325.19,327.15 326.83,324.18 328.67,321.48 C330.01,319.60 331.44,317.77 332.97,315.98 L 332.97 315.98 C333.25,315.65 333.55,315.33 333.85,314.99 L 331.99 318.50 C331.24,319.92 329.96,322.05 328.65,324.07 C326.75,325.92 323.02,332.60 322.44,335.54 C322.40,335.74 322.36,335.93 322.33,336.11 C322.00,337.12 321.71,338.15 321.46,339.17 C320.63,342.56 319.15,347.13 317.91,350.22 C317.49,350.86 317.08,351.85 316.50,353.37 C315.56,355.83 315.07,358.30 315.41,358.85 C315.43,358.89 315.46,358.93 315.50,358.97 C315.60,359.56 315.40,360.00 314.97,360.00 C314.44,360.00 314.01,359.21 314.02,358.25 C314.03,357.79 314.07,357.27 314.14,356.70 C314.52,355.50 314.92,353.89 315.42,351.75 C315.73,350.44 316.05,349.16 316.39,347.91 ZM 339.32 445.30 C337.18,443.14 335.04,440.85 333.23,438.80 C331.50,436.69 329.85,434.56 328.37,432.55 L 326.69 429.50 L 329.59 432.00 C333.77,435.59 340.00,442.29 340.00,443.18 C340.00,443.60 342.07,446.02 344.60,448.54 C347.12,451.07 348.96,453.38 348.67,453.67 C348.63,453.71 348.51,453.67 348.32,453.55 C347.98,453.31 347.65,453.06 347.32,452.82 C345.65,451.46 342.63,448.64 339.32,445.30 ZM 1018.17 464.35 C1019.18,463.43 1020.00,462.23 1020.00,461.67 C1020.00,460.38 1016.97,457.00 1015.82,457.00 C1014.48,457.00 1012.88,462.03 1013.54,464.13 C1014.27,466.44 1015.78,466.51 1018.17,464.35 ZM 468.87 449.57 C470.08,447.96 471.96,446.02 473.04,445.26 C475.71,443.39 475.60,438.27 472.83,435.31 C471.63,434.04 471.07,433.00 471.58,433.00 C471.81,433.00 472.24,433.31 472.79,433.80 C472.94,433.97 473.09,434.14 473.25,434.31 C474.98,436.17 476.50,438.04 477.33,439.28 C477.71,439.87 477.95,440.36 477.99,440.65 C477.92,441.01 477.20,441.95 476.08,443.21 C475.08,444.30 473.77,445.65 472.33,447.03 C469.22,450.04 467.66,451.18 468.87,449.57 ZM 590.70 668.67 C590.33,667.69 591.08,667.52 594.37,667.97 C595.67,668.26 597.34,668.50 599.57,668.77 L 604.58 669.38 C605.28,669.57 603.19,669.76 599.36,669.84 C593.38,669.96 591.08,669.65 590.70,668.67 ZM 423.00 362.00 C421.74,362.81 420.47,363.04 418.53,362.67 L 417.43 362.34 C414.95,361.59 415.39,361.30 422.03,361.17 C423.43,361.28 423.70,361.55 423.00,362.00 ZM 1138.79 429.80 C1147.17,426.76 1152.11,422.52 1155.84,415.51 C1152.07,422.59 1147.20,427.04 1138.79,429.80 ZM 1177.88 453.16 C1184.50,448.22 1189.67,442.20 1193.34,435.17 C1189.83,442.01 1184.99,447.84 1178.94,452.38 C1178.60,452.64 1178.24,452.90 1177.88,453.16 ZM 1132.09 467.90 C1138.46,467.52 1143.63,466.94 1148.23,466.05 C1144.00,466.99 1139.69,467.54 1132.09,467.90 ZM 939.07 243.82 L 942.82 236.50 L 961.46 236.23 L 942.92 236.50 ZM 728.61 423.50 C729.07,423.66 729.35,423.88 729.50,424.16 L 729.50 424.26 C729.18,423.92 728.70,423.68 728.04,423.50 ZM 680.56 452.91 C680.51,452.97 680.46,453.02 680.39,453.08 C680.52,452.75 680.69,452.14 680.87,451.39 C680.81,451.84 680.76,452.20 680.70,452.46 C680.65,452.67 680.60,452.82 680.56,452.91 ZM 671.81 453.97 C672.35,453.98 672.91,453.99 673.46,453.98 C673.13,453.99 672.80,454.00 672.48,454.00 C672.26,453.99 672.03,453.98 671.81,453.97 ZM 734.76 703.72 L 737.36 701.09 C736.84,701.62 736.32,702.15 735.79,702.69 C735.44,703.04 735.10,703.38 734.76,703.72 ZM 403.40 411.88 C403.52,411.95 403.60,412.00 403.66,412.00 C403.65,412.00 403.64,412.00 403.64,412.00 C403.60,412.00 403.52,411.96 403.40,411.88 ZM 753.00 684.01 C753.00,683.98 752.99,683.93 752.97,683.88 C752.99,683.93 753.00,683.97 753.00,684.00 C753.00,684.00 753.00,684.01 753.00,684.01 ZM 683.42 469.64 C683.41,469.64 683.41,469.63 683.41,469.63 C683.42,469.64 683.42,469.65 683.43,469.67 C683.42,469.66 683.42,469.65 683.42,469.64 Z" fill="rgb(87,168,229)"/>
<path d="M 618.87 723.25 L 632.24 722.94 L 645.35 710.47 L 658.46 698.00 L 681.48 698.23 L 704.50 698.46 L 681.59 698.75 L 658.68 699.04 L 646.59 711.54 L 634.50 724.04 L 620.00 723.80 L 605.50 723.56 L 618.87 723.25 ZM 729.01 705.95 C729.00,704.00 728.56,701.96 728.01,701.41 C727.36,700.76 729.58,697.88 734.51,692.99 C738.63,688.90 742.00,685.08 742.00,684.50 C742.00,683.92 738.65,680.12 734.55,676.05 C728.42,669.96 727.36,668.46 728.57,667.57 C729.38,666.98 730.38,665.24 730.79,663.71 C731.53,660.94 731.63,661.02 742.27,671.81 C748.17,677.80 753.00,683.29 753.00,684.02 C753.00,684.74 747.60,690.77 741.01,697.42 L 729.02 709.50 L 729.01 705.95 ZM 683.40 469.60 C683.10,468.82 683.00,466.69 683.18,464.85 L 683.50 461.50 L 685.25 464.70 C686.21,466.46 687.00,468.60 687.00,469.45 C687.00,471.38 684.13,471.50 683.40,469.60 ZM 1106.50 468.05 C1114.20,467.63 1121.74,466.79 1123.25,466.17 C1127.59,464.40 1126.58,460.30 1120.36,454.43 C1118.02,452.22 1117.00,450.37 1117.00,448.31 C1117.00,445.54 1113.60,441.00 1111.53,441.00 C1111.07,441.00 1108.25,439.85 1105.27,438.43 C1102.29,437.02 1097.97,435.53 1095.67,435.13 C1092.71,434.60 1096.56,434.19 1109.00,433.72 C1138.32,432.62 1148.94,428.49 1155.84,415.50 C1158.22,411.03 1158.50,409.44 1158.47,400.50 C1158.44,391.64 1158.13,389.92 1155.76,385.36 C1150.62,375.50 1141.61,370.17 1126.59,368.08 C1122.29,367.48 1103.49,367.00 1084.24,367.00 C1055.03,367.00 1049.90,366.79 1051.45,365.66 C1053.22,364.36 1053.22,364.27 1051.30,362.91 C1049.11,361.36 1046.47,357.00 1047.71,357.00 C1048.15,356.99 1047.04,356.10 1045.25,355.01 C1043.46,353.92 1042.00,352.40 1042.00,351.63 C1042.00,350.07 1037.82,347.00 1035.69,347.00 C1034.93,347.00 1033.45,346.05 1032.41,344.89 C1031.36,343.74 1028.70,341.89 1026.50,340.78 C1022.22,338.64 1018.00,334.49 1018.00,332.43 C1018.00,330.23 1014.56,325.01 1013.11,325.01 C1012.04,325.00 1011.85,326.10 1012.30,329.87 C1012.69,333.17 1012.44,335.36 1011.51,336.68 C1010.77,337.74 1009.97,340.17 1009.74,342.06 C1009.51,343.95 1009.25,320.86 1009.16,290.75 L 1009.00 236.00 L 1062.54 236.00 C1092.97,236.00 1120.27,236.45 1125.79,237.05 C1148.60,239.50 1168.41,248.15 1177.63,259.68 C1181.74,264.81 1186.40,274.14 1188.55,281.52 C1190.62,288.66 1190.88,303.03 1189.08,311.50 C1186.34,324.39 1178.49,336.66 1168.64,343.45 L 1162.97 347.36 L 1170.73 351.85 C1180.64,357.59 1187.73,364.99 1192.96,375.05 C1197.94,384.62 1199.96,393.39 1199.98,405.59 C1200.03,430.84 1188.58,449.49 1166.68,459.84 C1152.97,466.32 1142.82,468.02 1115.50,468.44 C1096.53,468.74 1094.95,468.67 1106.50,468.05 ZM 1125.29 330.51 C1141.32,326.34 1148.94,317.16 1148.97,302.00 C1148.99,289.69 1144.30,282.04 1133.40,276.59 C1124.12,271.95 1119.88,271.52 1083.69,271.51 L 1049.89 271.50 L 1049.97 301.39 C1050.02,317.83 1050.28,331.65 1050.56,332.10 C1050.84,332.55 1066.47,332.71 1085.29,332.46 C1111.34,332.12 1120.89,331.66 1125.29,330.51 ZM 666.67 453.33 C666.30,452.97 666.00,451.05 666.00,449.08 L 666.01 445.50 L 674.02 445.39 L 682.04 445.28 L 681.39 448.89 C681.03,450.88 680.54,452.84 680.31,453.25 C679.78,454.18 667.59,454.25 666.67,453.33 ZM 726.50 427.72 C724.85,427.18 722.83,426.16 722.00,425.46 C721.17,424.76 719.38,423.98 718.00,423.73 C716.62,423.48 718.55,423.21 722.28,423.14 C729.19,423.00 730.66,423.81 729.83,427.29 C729.57,428.39 728.84,428.48 726.50,427.72 ZM 703.50 414.78 C701.85,410.78 700.34,407.15 700.15,406.71 C699.96,406.26 702.88,406.04 706.65,406.20 L 713.50 406.50 L 713.50 414.00 L 713.50 421.50 L 710.00 421.78 C706.53,422.05 706.47,421.99 703.50,414.78 ZM 391.59 400.82 C385.49,394.67 381.44,390.39 382.58,391.32 C385.18,393.43 389.87,393.51 390.65,391.46 C390.98,390.62 390.43,388.93 389.44,387.71 C388.45,386.50 392.52,390.34 398.48,396.26 L 409.33 407.02 L 406.99 409.51 C405.70,410.88 404.21,412.00 403.66,412.00 C403.12,412.00 397.69,406.97 391.59,400.82 ZM 51.00 364.50 C51.00,361.83 51.42,361.00 52.75,361.00 C54.08,361.00 54.50,361.83 54.50,364.50 C54.50,367.17 54.08,368.00 52.75,368.00 C51.42,368.00 51.00,367.17 51.00,364.50 ZM 978.28 304.25 C977.23,297.11 973.47,288.03 970.90,286.44 C970.39,286.12 970.23,285.44 970.54,284.93 C970.86,284.42 970.42,284.00 969.56,284.00 C968.70,284.00 968.00,283.26 968.00,282.35 C968.00,281.43 966.20,278.98 964.00,276.89 C961.80,274.79 960.00,272.41 960.00,271.60 C960.00,270.78 959.53,269.83 958.96,269.47 C958.39,269.12 958.20,267.94 958.55,266.84 C959.33,264.39 954.50,259.07 951.47,259.03 C948.41,258.99 944.83,256.10 945.44,254.16 C945.72,253.25 945.53,251.83 945.02,251.01 C944.21,249.71 943.66,249.77 940.79,251.44 C938.98,252.50 936.91,254.18 936.20,255.18 C935.48,256.17 934.03,257.45 932.98,258.01 C931.59,258.75 932.70,255.91 936.99,247.77 L 942.92 236.50 L 961.46 236.23 L 980.00 235.96 L 980.00 273.98 C980.00,294.89 979.87,312.00 979.70,312.00 C979.54,312.00 978.90,308.51 978.28,304.25 Z" fill="rgb(127,120,230)"/>
</g>
</svg>